<svg xmlns="http://www.w3.org/2000/svg" xmlns:xlink="http://www.w3.org/1999/xlink" viewBox="0 0 44 76" fill="#fff" fill-rule="evenodd" stroke="#000" stroke-linecap="round" stroke-linejoin="round"><use xlink:href="#I" x=".5" y=".5"/><defs><linearGradient id="A" x1="-0.00%" y1="50.00%" x2="100.00%" y2="50.00%"><stop offset="23.6%" stop-color="#d4d0d1"/><stop offset="100%" stop-color="#a2acb9"/></linearGradient><linearGradient id="B" x1="-0.00%" y1="50.00%" x2="100.00%" y2="50.00%"><stop offset="23.6%" stop-color="#a2acb9"/></linearGradient><linearGradient id="C" x1="0.00%" y1="50.00%" x2="100.00%" y2="50.00%"><stop offset="6.7%" stop-color="#c7cbd3"/><stop offset="32%" stop-color="#c6d2de"/><stop offset="100%" stop-color="#a6b4c2"/></linearGradient><linearGradient id="D" x1="50.00%" y1="100.00%" x2="50.00%" y2="0.00%"><stop offset="0%" stop-color="#e6e6e3"/><stop offset="100%" stop-color="#d4d4d2"/></linearGradient><linearGradient id="E" x1="-0.00%" y1="50.00%" x2="100.00%" y2="50.00%"><stop offset="23.6%" stop-color="#e6e6e3"/><stop offset="79.2%" stop-color="#99a1ac"/><stop offset="100%" stop-color="#e6e6e3"/></linearGradient><linearGradient id="F" x1="50.00%" y1="100.00%" x2="50.00%" y2="0.00%"><stop offset="10.7%" stop-color="#d4d0d1"/><stop offset="15.8%" stop-color="#c6c6ca"/><stop offset="25.3%" stop-color="#b6bac2"/><stop offset="37.2%" stop-color="#aab2bc"/><stop offset="53.8%" stop-color="#a4aeb9"/><stop offset="100%" stop-color="#a2acb9"/></linearGradient><path id="G" d="M30.073 2.712c0 1.495-3.694 2.708-8.249 2.708s-8.249-1.213-8.249-2.708S17.267 0 21.824 0s8.249 1.214 8.249 2.712zM21.765 1.53c-3.058 0-5.537.448-5.537.999s2.48 1 5.537 1 5.541-.448 5.541-1-2.479-.999-5.541-.999z"/><path id="H" d="M28.988 4.057s-.35 13.083.523 15.7 11.862 42.742 12.211 44.139.7 2.443.175 4.187-.698 2.617-2.094 3.664c-1.125.843-2.092 1.742-4.71 2.092s-10.815.698-14.478.698-12.389-.698-14.482-1.221-2.617-1.048-3.661-2.094S.376 68.955.203 67.907s-.351-1.742 0-3.313 13.258-44.314 13.781-45.708.523-14.654.523-14.654 2.45 1.188 7.329 1.221c4.554.029 7.152-1.396 7.152-1.396z"/></defs><symbol id="I" overflow="visible"><g stroke="none" fill-rule="nonzero"><path d="M30.073 2.712c0 1.495-3.694 2.708-8.249 2.708s-8.249-1.213-8.249-2.708S17.267 0 21.824 0s8.249 1.214 8.249 2.712z" fill="url(#A)"/><path d="M29.137 4.056s-.347 13.083.526 15.7 11.864 42.742 12.212 44.139.698 2.444.175 4.188-.698 2.617-2.094 3.664c-1.128.844-2.094 1.742-4.71 2.092s-10.818.698-14.481.698-12.385-.698-14.479-1.221-2.617-1.048-3.664-2.094S.528 68.954.355 67.907s-.348-1.742 0-3.313 13.258-44.314 13.78-45.708.525-14.654.525-14.654 2.452 1.188 7.329 1.221c4.555.029 7.149-1.396 7.149-1.396zm-12.621-.758c-.418.474-.232 14.733-.585 16.146S2.615 64.932 2.615 65.757s0 .943.234 1.415.708.587 1.12.941 14.567.815 17.044.815 14.718-.109 15.489-.463 1.357-.494 1.585-1.294c.234-.827.353-1.466.234-1.938S26.654 21.268 26.301 19.382s.237-15.847-.471-16.318-3.176-.472-4.709-.59-4.192.353-4.606.824z" fill="url(#B)" opacity=".8"/><path d="M21.121 2.474c1.533.118 4.001.118 4.709.59s.119 14.434.471 16.318 11.904 45.38 12.02 45.852 0 1.111-.234 1.938c-.229.801-.812.941-1.585 1.294s-13.013.463-15.489.463-16.633-.463-17.044-.815-.883-.472-1.12-.941-.234-.59-.234-1.415 12.962-44.899 13.316-46.313.172-15.672.585-16.146 3.072-.941 4.606-.824z" fill="url(#C)" opacity=".8"/><path d="M38.526 67.486c.234-.827-.087-3.453-.206-3.926S26.654 21.268 26.301 19.382c-.268-1.437.01-9.901-.157-14.046 1.309-.351 2.305-.956 2.305-.956l-.18 14.68 11.745 43.801s.575 2.193.582 3.187-.466 1.744-.466 1.744-1.046 2.558-2.21 2.676.606-2.981.606-2.981z" fill="url(#D)" opacity=".81"/><path d="M4.622 69.969c.013-1.495 7.304-2.641 16.284-2.561s16.249 1.36 16.238 2.855-7.304 2.643-16.285 2.56-16.251-1.36-16.236-2.854z" fill="#99a1ac" opacity=".81"/><use xlink:href="#G" fill="url(#E)" opacity=".9"/></g><use xlink:href="#G" stroke-linejoin="miter" fill="none" stroke-width=".314"/><g stroke="none" fill-rule="nonzero"><path d="M15.697 1.414c-.708-.237 4.238-1.061 5.774-1.061 1.53 0 6.356.74 5.892.883-.59.178-3.658-.293-5.542-.412s-5.418.827-6.124.59zm5.941 3.455c3.141 0 5.815-.463 5.349-.579s-3.547 0-5.872 0-5.292-1.282-5.292-.932 2.676 1.51 5.815 1.51z" fill="#5f7178" opacity=".63"/><use xlink:href="#H" fill="url(#F)" opacity=".5"/></g><g stroke-linejoin="miter" fill="none"><use xlink:href="#H" stroke-width=".314"/><g stroke="#fff" stroke-linecap="butt" stroke-width=".349"><path d="M20.474 23.13h-2.906l-6.515 40.357h7.445"/><path d="M18.382 30.923h-2.094m3.374 8.373h-4.771m2.095 5.815h-3.024m5.233 5.117h-5.931m2.674 4.537h-3.607m6.283 3.72h-6.745m3.258 2.677h-3.607"/></g></g><g stroke="none" fill-rule="nonzero"><path d="M22.959 7.031c-.248 1.059-.847 10.691-.062 15.022s4.684 45.018 6.422 47.561 3.084 3.002 3.95-.703-6.904-41.95-7.891-47.494-.327-13.783-.963-14.801-1.208-.644-1.456.415z" fill="#f1f1f1" opacity=".5"/><path d="M21.499 24.142l.286-.029c.008.064.033.116.072.155s.087.056.137.056c.061 0 .111-.024.154-.074s.062-.124.062-.222-.021-.162-.062-.208-.095-.07-.16-.07c-.084 0-.155.036-.222.111l-.232-.036.147-.78h.76v.27h-.543l-.046.255c.065-.034.129-.049.198-.049.128 0 .235.046.324.139s.131.214.131.363a.54.54 0 0 1-.106.332c-.097.132-.234.198-.405.198-.137 0-.25-.034-.337-.111a.45.45 0 0 1-.157-.299zm1.646-1.123a.41.41 0 0 1 .34.155c.098.123.147.327.147.611s-.051.489-.147.613c-.082.103-.195.154-.34.154a.43.43 0 0 1-.353-.167c-.09-.113-.134-.314-.134-.601s.049-.487.147-.613c.082-.099.193-.152.34-.152zm0 .239c-.034 0-.065.008-.093.033s-.046.062-.062.119c-.02.074-.029.199-.029.376s.008.299.026.366.041.108.065.131.059.033.093.033a.15.15 0 0 0 .093-.033c.026-.023.044-.062.062-.119.02-.074.031-.201.031-.378s-.01-.297-.028-.364-.041-.108-.067-.131-.057-.032-.092-.032zm1.164-.239c.146 0 .26.052.342.155.096.123.146.327.146.611s-.049.489-.146.613c-.083.103-.196.154-.342.154a.43.43 0 0 1-.351-.167c-.088-.113-.136-.314-.136-.601s.051-.487.147-.613a.42.42 0 0 1 .34-.152zm0 .239c-.036 0-.067.008-.091.033s-.049.062-.064.119c-.02.074-.029.199-.029.376s.01.299.026.366.038.108.067.131.058.033.091.033a.15.15 0 0 0 .093-.033c.026-.023.048-.062.064-.119.018-.074.03-.201.03-.378s-.01-.297-.03-.364-.039-.108-.064-.131-.059-.032-.093-.032zm-2.831 16.736v-.301h-.618v-.252l.652-.953h.24v.953h.186v.252h-.186v.301h-.275zm0-.552v-.518l-.35.518h.35zm1.085-.955c.146 0 .258.052.342.155.096.124.146.328.146.613s-.049.489-.147.613c-.082.103-.194.154-.34.154s-.263-.057-.353-.168-.134-.314-.134-.602.051-.487.147-.611c.082-.103.195-.154.34-.154zm0 .238c-.034 0-.067.011-.093.033s-.046.062-.062.119c-.02.075-.029.201-.029.377s.008.297.026.364.041.11.067.133.057.031.091.031.067-.011.093-.033.049-.062.062-.119a1.57 1.57 0 0 0 .029-.376c0-.177-.008-.299-.028-.365s-.039-.111-.064-.132-.059-.033-.093-.033zm1.164-.238a.41.41 0 0 1 .342.155c.096.124.146.328.146.613s-.049.489-.149.613c-.078.103-.191.154-.338.154a.43.43 0 0 1-.351-.168c-.093-.113-.134-.314-.134-.602s.049-.487.147-.611c.08-.103.193-.154.338-.154zm0 .238c-.033 0-.066.011-.091.033s-.049.062-.064.119c-.02.075-.029.201-.029.377s.008.297.028.364.038.11.065.133.059.031.091.031.067-.011.093-.033.049-.062.064-.119c.02-.075.029-.199.029-.376s-.01-.299-.028-.365-.039-.111-.066-.132-.059-.033-.093-.033zm-3.406 11.805l.278-.033c.008.07.033.124.072.162s.087.057.139.056a.2.2 0 0 0 .152-.067.26.26 0 0 0 .061-.183.24.24 0 0 0-.059-.171c-.034-.042-.085-.066-.139-.066-.037 0-.082.008-.132.021l.031-.232c.077.002.136-.013.177-.051s.062-.083.062-.144a.17.17 0 0 0-.044-.119c-.031-.031-.07-.047-.121-.047s-.091.018-.126.052-.054.083-.062.15l-.267-.046a.66.66 0 0 1 .083-.219c.037-.054.09-.096.155-.127a.53.53 0 0 1 .225-.049c.139 0 .253.047.337.137.072.075.108.157.108.25 0 .131-.073.237-.217.315.085.02.153.06.206.124s.077.14.077.232a.46.46 0 0 1-.144.339c-.096.093-.217.139-.358.139a.51.51 0 0 1-.338-.116.47.47 0 0 1-.156-.307zm1.66-1.113a.41.41 0 0 1 .34.159c.098.123.147.325.147.611s-.049.487-.147.611a.41.41 0 0 1-.34.155.43.43 0 0 1-.353-.168c-.087-.113-.134-.312-.134-.601 0-.283.051-.487.147-.611.082-.103.196-.155.34-.155zm0 .239c-.034 0-.066.013-.091.034s-.047.064-.064.119c-.02.075-.029.199-.029.377s.008.297.026.363.041.111.067.132.058.034.091.033.067-.011.093-.033.049-.062.064-.121a1.74 1.74 0 0 0 .029-.374c0-.178-.01-.297-.028-.364s-.041-.109-.065-.132-.059-.034-.093-.034zm1.165-.239c.144 0 .258.056.34.159.096.123.147.325.147.611s-.051.487-.147.611c-.084.103-.196.155-.34.155a.43.43 0 0 1-.355-.168c-.087-.113-.132-.312-.132-.601 0-.283.049-.487.146-.611.083-.103.196-.155.341-.155zm0 .239c-.034 0-.067.013-.093.034s-.047.064-.064.119c-.02.075-.029.199-.029.377s.01.297.028.363.039.111.066.132.059.034.093.033.064-.01.091-.033.049-.062.064-.121c.02-.074.029-.198.029-.374a1.6 1.6 0 0 0-.028-.364c-.016-.065-.039-.109-.065-.132s-.057-.034-.091-.034zm-2.427 9.262v.267h-1.007a.69.69 0 0 1 .097-.288c.057-.091.163-.209.324-.361.131-.119.209-.201.239-.245a.32.32 0 0 0 .059-.176c0-.062-.018-.113-.051-.149s-.083-.049-.144-.049-.108.016-.144.054-.055.095-.059.18l-.288-.029c.015-.159.07-.271.159-.34a.55.55 0 0 1 .34-.103.5.5 0 0 1 .35.119.39.39 0 0 1 .126.299c0 .065-.011.129-.036.191a.92.92 0 0 1-.114.193c-.036.044-.098.108-.19.191l-.173.165c-.022.025-.041.052-.057.082h.57zm.68-1.24c.145 0 .258.052.341.155.097.124.146.327.146.613s-.049.489-.147.611c-.082.103-.194.154-.34.154a.43.43 0 0 1-.353-.168c-.088-.111-.134-.312-.134-.601 0-.281.051-.487.147-.611.082-.1.194-.152.34-.152zm0 .239c-.034-.001-.067.011-.093.033s-.047.062-.062.119c-.02.074-.029.201-.029.377a1.53 1.53 0 0 0 .028.365c.016.065.039.108.066.131s.057.033.091.033a.15.15 0 0 0 .093-.033c.028-.023.049-.062.062-.119.021-.074.031-.199.031-.376s-.01-.299-.028-.366-.038-.109-.065-.131-.059-.033-.093-.033zm1.165-.239c.146 0 .258.052.342.155.095.124.144.327.144.613s-.049.489-.146.611c-.082.103-.195.154-.34.154a.43.43 0 0 1-.353-.168c-.088-.111-.134-.312-.134-.601 0-.281.049-.487.147-.611.08-.1.194-.152.34-.152zm0 .239a.14.14 0 0 0-.093.033c-.026.021-.047.062-.064.119-.02.074-.029.201-.029.377s.01.297.028.365.039.108.065.131a.15.15 0 0 0 .093.033c.033 0 .064-.011.091-.033s.049-.062.064-.119c.02-.074.029-.199.029-.376a1.78 1.78 0 0 0-.026-.366c-.018-.065-.041-.109-.067-.131s-.058-.033-.092-.033zm-2.198 6.386h-.288v-1.085c-.105.098-.227.17-.371.217v-.26c.077-.025.159-.072.245-.139s.147-.149.18-.24h.234v1.507zm.917-1.507a.41.41 0 0 1 .342.155c.096.124.145.327.145.613s-.049.485-.147.613c-.082.101-.195.152-.34.152s-.265-.054-.353-.168-.134-.312-.134-.602c0-.283.051-.487.147-.61.082-.103.195-.154.34-.154zm0 .237c-.036 0-.064.012-.093.034s-.048.062-.062.119c-.02.075-.029.201-.029.378a1.62 1.62 0 0 0 .026.363c.018.066.041.111.065.132s.057.034.093.034.065-.013.093-.036.047-.062.062-.119c.021-.073.029-.198.029-.374a1.64 1.64 0 0 0-.026-.365c-.018-.067-.039-.111-.066-.132s-.059-.034-.093-.034zm1.162-.237c.149 0 .262.051.345.155.095.124.142.327.142.613s-.047.485-.144.613c-.082.101-.195.152-.343.152a.42.42 0 0 1-.35-.168c-.09-.113-.136-.312-.136-.602 0-.283.051-.487.149-.61.08-.103.193-.154.337-.154zm0 .237c-.031 0-.062.012-.09.034s-.051.062-.064.119c-.02.075-.029.201-.029.378s.01.297.028.363.038.111.065.132.059.034.09.034.065-.013.095-.036.047-.062.064-.119c.02-.073.029-.198.029-.374s-.01-.299-.026-.365-.041-.111-.067-.132a.15.15 0 0 0-.095-.034z"/></g></symbol></svg>